#!OML:ASF H:\Pregnant\Project 1\Capture day 1\Session 1\femalepreg.ASF
:FULLY-SPECIFIED
:DEGREES
208
root 5.67121 15.7867 8.70239 -153.754 -16.9201 -183.041
lowerback -10.2942 2.62501 9.26641
upperback -4.56743 1.16661 8.20288
thorax 1.05767 -0.00329048 3.53502
lowerneck -13.8654 -2.5881 3.19197
upperneck 34.7281 -6.96446 -3.06097
head 13.9096 -3.98951 -3.11257
rclavicle -7.15625e-015 8.26944e-014
rhumerus -29.4004 -11.2354 -60.6303
rradius 47.4713
rwrist -14.5379
rhand -16.7053 -17.5104
rfingers 7.12502
rthumb 9.51973 -47.2754
lclavicle -7.15625e-015 8.26944e-014
lhumerus -44.5118 4.04127 77.7339
lradius 25.7249
lwrist 41.0818
lhand -16.0885 3.8585
lfingers 7.12502
lthumb 10.1148 33.5954
rfemur -53.7984 -0.0369513 19.2331
rtibia 45.2815
rfoot -12.2793 -5.93827
rtoes -12.5557
lfemur -47.2167 -8.58627 -21.4408
ltibia 84.9646
lfoot -2.55708 -11.1236
ltoes -27.8269
209
root 5.67358 15.8111 8.63318 -153.73 -16.5701 -183.211
lowerback -10.1945 2.55229 9.07279
upperback -4.48926 1.10675 8.22801
thorax 1.08048 -0.0234536 3.65891
lowerneck -13.8804 -2.52009 3.2061
upperneck 34.6335 -6.84092 -3.06654
head 13.8747 -3.93238 -3.09341
rclavicle 4.29375e-014 7.63333e-014
rhumerus -28.9702 -11.0285 -61.0909
rradius 47.7466
rwrist -14.8846
rhand -16.604 -17.32
rfingers 7.12502
rthumb 9.6174 -47.0805
lclavicle 4.29375e-014 7.63333e-014
lhumerus -44.4782 3.84515 77.9649
lradius 25.7486
lwrist 39.7566
lhand -14.7659 3.5017
lfingers 7.12502
lthumb 11.3905 33.1723
rfemur -53.3569 0.499546 18.9013
rtibia 44.9921
rfoot -12.2917 -6.33858
rtoes -12.5472
lfemur -48.87 -8.37335 -22.0078
ltibia 86.5441
lfoot -3.10359 -10.6896
ltoes -28.6144
210
root 5.67594 15.8349 8.56425 -153.704 -16.2231 -183.348
lowerback -10.1257 2.48456 8.89125
upperback -4.41277 1.04691 8.24711
thorax 1.11921 -0.0439501 3.77079
lowerneck -13.8835 -2.45099 3.22183
upperneck 34.5347 -6.71432 -3.07632
head 13.8353 -3.87461 -3.07505
rclavicle 4.77083e-015 1.33583e-013
rhumerus -28.5235 -10.8255 -61.567
rradius 47.9156
rwrist -15.1178
rhand -16.5326 -17.1747
rfingers 7.12502
rthumb 9.68628 -46.9319
lclavicle 4.77083e-015 1.33583e-013
lhumerus -44.4622 3.62372 78.2107
lradius 25.9428
lwrist 38.8502
lhand -13.7468 3.1199
lfingers 7.12502
lthumb 12.3732 32.7337
rfemur -52.9259 1.05074 18.6048
rtibia 44.6849
rfoot -12.2934 -6.74591
rtoes -12.5266
lfemur -50.5166 -8.16338 -22.5418
ltibia 87.9608
lfoot -3.50769 -10.1973
ltoes -29.034
211
root 5.67835 15.8585 8.49525 -153.679 -15.8682 -183.463
lowerback -10.0749 2.41817 8.71602
upperback -4.34169 0.987244 8.25183
thorax 1.1627 -0.0643436 3.86443
lowerneck -13.8696 -2.37154 3.2491
upperneck 34.4391 -6.57576 -3.09017
head 13.7936 -3.81154 -3.05821
rclavicle 8.66701e-014 1.55847e-013
rhumerus -28.0831 -10.6269 -62.0683
rradius 47.9973
rwrist -15.2408
rhand -16.4759 -17.0636
rfingers 7.12502
rthumb 9.74103 -46.8183
lclavicle 8.66701e-014 1.55847e-013
lhumerus -44.4645 3.39774 78.4406
lradius 26.286
lwrist 38.393
lhand -13.0092 2.78371
lfingers 7.12502
lthumb 13.0844 32.3533
rfemur -52.4957 1.61402 18.3337
rtibia 44.3625
rfoot -12.2903 -7.15405
rtoes -12.474
lfemur -52.1314 -7.95947 -23.0547
ltibia 89.1958
lfoot -3.87707 -9.65508
ltoes -29.4196
212
root 5.68057 15.8815 8.42643 -153.653 -15.4947 -183.565
lowerback -10.0551 2.3608 8.53457
upperback -4.26207 0.937323 8.2397
thorax 1.23258 -0.0784406 3.94557
lowerneck -13.8621 -2.28941 3.28389
upperneck 34.3425 -6.43263 -3.10735
head 13.7528 -3.74532 -3.0435
rclavicle -4.85035e-014 -1.36764e-013
rhumerus -27.6407 -10.4582 -62.5825
rradius 48.0006
rwrist -15.2562
rhand -16.4325 -17.0172
rfingers 7.12502
rthumb 9.78293 -46.7699
lclavicle -4.85035e-014 -1.36764e-013
lhumerus -44.4452 3.18237 78.6498
lradius 26.7515
lwrist 38.3687
lhand -12.5175 2.54773
lfingers 7.12502
lthumb 13.5583 32.0863
rfemur -52.0735 2.17909 18.0799
rtibia 44.0307
rfoot -12.2801 -7.54561
rtoes -12.4055
lfemur -53.707 -7.75441 -23.5581
ltibia 90.2403
lfoot -4.15884 -9.09461
ltoes -29.5721
213
root 5.68269 15.9041 8.35752 -153.633 -15.0938 -183.665
lowerback -10.0456 2.30877 8.34501
upperback -4.17682 0.898497 8.19971
thorax 1.3143 -0.0851181 4.00307
lowerneck -13.8589 -2.20031 3.32876
upperneck 34.2468 -6.28374 -3.11736
head 13.7139 -3.67386 -3.02711
rclavicle -1.90833e-014 9.85972e-014
rhumerus -27.2154 -10.3148 -63.1221
rradius 47.9382
rwrist -15.1754
rhand -16.4252 -16.9933
rfingers 7.12502
rthumb 9.78991 -46.7457
lclavicle -1.90833e-014 9.85972e-014
lhumerus -44.4061 2.99472 78.8052
lradius 27.3155
lwrist 38.6969
lhand -12.2139 2.41731
lfingers 7.12502
lthumb 13.8509 31.9361
rfemur -51.6493 2.74904 17.8286
rtibia 43.6934
rfoot -12.2708 -7.92217
rtoes -12.3121
lfemur -55.2173 -7.55532 -24.0635
ltibia 91.0816
lfoot -4.34667 -8.53861
ltoes -29.4078
214
root 5.68482 15.926 8.28863 -153.619 -14.6672 -183.762
lowerback -10.044 2.26454 8.14925
upperback -4.08522 0.87441 8.13063
thorax 1.40714 -0.0825604 4.03495
lowerneck -13.8661 -2.10865 3.38242
upperneck 34.1531 -6.13708 -3.11555
head 13.6786 -3.59995 -3.00844
rclavicle 1.82882e-014 -1.55847e-013
rhumerus -26.8152 -10.2017 -63.684
rradius 47.8192
rwrist -15.0143
rhand -16.4587 -16.9918
rfingers 7.12502
rthumb 9.75764 -46.7458
lclavicle 1.82882e-014 -1.55847e-013
lhumerus -44.3448 2.81428 78.9159
lradius 27.9745
lwrist 39.3067
lhand -12.1111 2.42334
lfingers 7.12502
lthumb 13.9499 31.9354
rfemur -51.2264 3.32788 17.5774
rtibia 43.3548
rfoot -12.261 -8.28429
rtoes -12.1938
lfemur -56.6617 -7.3597 -24.5648
ltibia 91.7216
lfoot -4.46828 -8.00696
ltoes -28.959
215
root 5.68685 15.9468 8.21995 -153.614 -14.2181 -183.858
lowerback -10.0419 2.22577 7.95008
upperback -3.99211 0.862638 8.03562
thorax 1.50134 -0.0725853 4.04262
lowerneck -13.8759 -2.01314 3.43895
upperneck 34.062 -5.98999 -3.10148
head 13.6459 -3.5236 -2.9857
rclavicle 3.18055e-015 2.51264e-013
rhumerus -26.4474 -10.1021 -64.2635
rradius 47.6509
rwrist -14.798
rhand -16.5414 -16.9823
rfingers 7.12502
rthumb 9.67784 -46.7399
lclavicle 3.18055e-015 2.51264e-013
lhumerus -44.262 2.67479 78.9658
lradius 28.6933
lwrist 40.0413
lhand -12.1651 2.52216
lfingers 7.12502
lthumb 13.8979 32.0378
rfemur -50.8068 3.9142 17.3259
rtibia 43.0195
rfoot -12.2505 -8.63039
rtoes -12.0787
lfemur -58.0411 -7.1695 -25.0589
ltibia 92.1655
lfoot -4.57772 -7.50499
ltoes -28.3854
216
root 5.6887 15.9661 8.15162 -153.623 -13.7547 -183.943
lowerback -10.0375 2.19263 7.75099
upperback -3.89694 0.861656 7.92289
thorax 1.59646 -0.0564949 4.03281
lowerneck -13.8877 -1.91568 3.49071
upperneck 33.9779 -5.84544 -3.07263
head 13.6175 -3.44696 -2.95729
rclavicle -2.38542e-015 -9.22361e-014
rhumerus -26.1123 -10.0093 -64.8516
rradius 47.4396
rwrist -14.5513
rhand -16.6533 -17.0159
rfingers 7.12502
rthumb 9.56983 -46.7786
lclavicle -2.38542e-015 -9.22361e-014
lhumerus -44.1681 2.55457 78.9792
lradius 29.4785
lwrist 40.8251
lhand -12.3762 2.67979
lfingers 7.12502
lthumb 13.6945 32.2092
rfemur -50.3921 4.50866 17.0808
rtibia 42.6973
rfoot -12.2478 -8.96101
rtoes -11.9565
lfemur -59.3539 -6.98228 -25.5327
ltibia 92.4246
lfoot -4.69376 -7.01985
ltoes -27.7612
217
root 5.68968 15.9827 8.08421 -153.64 -13.2774 -184.01
lowerback -10.0297 2.16714 7.56695
upperback -3.80729 0.870997 7.79967
thorax 1.68404 -0.0358596 4.00481
lowerneck -13.8881 -1.8122 3.53627
upperneck 33.9013 -5.69355 -3.04099
head 13.5907 -3.36824 -2.92585
rclavicle -3.18055e-015 -4.45278e-014
rhumerus -25.8122 -9.90045 -65.439
rradius 47.186
rwrist -14.296
rhand -16.7827 -17.0857
rfingers 7.12502
rthumb 9.44498 -46.854
lclavicle -3.18055e-015 -4.45278e-014
lhumerus -44.0711 2.47389 78.9587
lradius 30.3035
lwrist 41.5504
lhand -12.7163 2.82871
lfingers 7.12502
lthumb 13.3666 32.3799
rfemur -49.9994 5.10382 16.8524
rtibia 42.4005
rfoot -12.2528 -9.26658
rtoes -11.8759
lfemur -60.6204 -6.79799 -25.9776
ltibia 92.5157
lfoot -4.8446 -6.54266
ltoes -27.2557
218
root 5.68995 15.9959 8.01883 -153.645 -12.8043 -184.058
lowerback -10.0278 2.14777 7.39988
upperback -3.7308 0.886516 7.66941
thorax 1.7613 -0.0133463 3.96093
lowerneck -13.8914 -1.70479 3.5749
upperneck 33.836 -5.53642 -3.00884
head 13.5701 -3.28826 -2.89312
rclavicle -4.29375e-014 -9.54166e-015
rhumerus -25.5371 -9.76756 -66.02
rradius 46.8878
rwrist -14.0524
rhand -16.917 -17.2062
rfingers 7.12502
rthumb 9.31539 -46.9804
lclavicle -4.29375e-014 -9.54166e-015
lhumerus -43.9651 2.42887 78.9138
lradius 31.1554
lwrist 42.1806
lhand -13.1757 2.91633
lfingers 7.12502
lthumb 12.9239 32.4961
rfemur -49.6605 5.68118 16.6433
rtibia 42.1401
rfoot -12.2726 -9.545
rtoes -11.8044
lfemur -61.877 -6.63663 -26.3813
ltibia 92.4555
lfoot -5.02489 -6.06511
ltoes -26.9624
